<?xml version="1.0" standalone="no"?>
<!DOCTYPE svg PUBLIC "-//W3C//DTD SVG 20010904//EN"
 "http://www.w3.org/TR/2001/REC-SVG-20010904/DTD/svg10.dtd">
<svg version="1.0" xmlns="http://www.w3.org/2000/svg"
 width="500.000000pt" height="500.000000pt" viewBox="0 0 500.000000 500.000000"
 preserveAspectRatio="xMidYMid meet">
<metadata>
Created by potrace 1.14, written by Peter Selinger 2001-2017
</metadata>
<g transform="translate(0.000000,500.000000) scale(0.100000,-0.100000)"
fill="#000000" stroke="none">
<path d="M2772 4588 c-4 -4 -19 -9 -32 -12 -14 -2 -25 -5 -25 -6 0 -2 -33 -10
-60 -14 -38 -6 -177 -69 -182 -82 -3 -8 -8 -12 -12 -10 -11 7 -54 -35 -80 -77
-22 -36 -38 -44 -91 -50 -14 -1 -28 -6 -32 -12 -5 -6 -8 -4 -8 5 0 9 -3 11 -8
5 -4 -6 -33 -19 -66 -30 -32 -10 -65 -25 -72 -32 -7 -7 -15 -13 -18 -13 -6 0
-36 -25 -82 -67 -13 -12 -24 -27 -24 -33 0 -5 -4 -10 -8 -10 -14 0 -176 -235
-189 -272 -3 -10 -10 -18 -16 -18 -6 0 -7 -3 -4 -7 4 -3 0 -17 -8 -29 -8 -13
-17 -34 -19 -46 -3 -13 -5 -24 -7 -25 -1 -2 -3 -12 -4 -23 -1 -11 -4 -23 -5
-27 -1 -5 -2 -12 -1 -16 1 -4 4 -24 7 -45 8 -45 9 -53 17 -72 5 -14 10 -34 23
-105 3 -16 10 -35 15 -41 5 -6 6 -14 2 -17 -3 -4 -1 -13 5 -20 7 -8 9 -17 5
-20 -3 -4 0 -7 7 -7 7 0 10 -3 7 -7 -4 -3 -2 -12 3 -18 7 -8 5 -27 -4 -58 -8
-26 -12 -47 -9 -47 3 0 0 -7 -7 -15 -7 -8 -9 -15 -5 -15 4 0 2 -7 -5 -15 -7
-8 -9 -15 -5 -15 4 0 2 -7 -5 -15 -7 -8 -9 -15 -5 -15 4 0 2 -7 -5 -15 -7 -8
-9 -15 -5 -15 4 0 -3 -8 -16 -18 -15 -13 -19 -21 -10 -26 6 -4 10 -4 9 1 -2 4
0 9 5 11 4 1 25 20 47 42 42 42 43 41 42 -22 0 -16 4 -28 9 -28 5 0 9 -8 9
-18 0 -10 4 -22 10 -28 5 -5 11 -29 12 -52 1 -27 5 -39 12 -35 8 5 8 3 0 -8
-6 -8 -9 -27 -8 -43 4 -37 -19 -61 -45 -47 -10 6 -33 12 -50 13 -17 1 -31 5
-31 8 0 3 -44 4 -97 2 -93 -3 -209 16 -238 39 -12 9 -28 7 -68 -9 -15 -7 -31
-11 -35 -10 -4 1 -20 -4 -35 -10 -16 -7 -33 -10 -38 -6 -5 3 -9 0 -9 -6 0 -6
-12 -16 -27 -22 -43 -19 -69 -52 -64 -80 0 -5 -4 -8 -10 -8 -5 0 -7 -5 -3 -12
4 -6 9 -34 11 -62 5 -68 5 -66 -2 -111 -4 -22 -8 -53 -10 -70 -1 -16 -4 -30
-5 -30 -1 0 -4 -17 -6 -39 -3 -21 -12 -73 -20 -115 -9 -42 -17 -94 -19 -116
-2 -22 -4 -40 -5 -40 -1 0 -3 -18 -5 -40 -2 -22 -6 -50 -9 -61 -3 -15 6 -33
30 -58 19 -20 34 -39 34 -42 0 -3 -18 -41 -40 -85 -21 -43 -37 -79 -33 -79 3
0 1 -6 -5 -13 -6 -7 -13 -24 -16 -39 -2 -14 -9 -35 -15 -46 -10 -18 -29 -101
-45 -187 -3 -16 -8 -43 -12 -60 -4 -16 -7 -38 -8 -47 0 -10 -4 -18 -8 -18 -4
0 -3 -11 2 -25 6 -15 6 -26 -1 -30 -5 -4 -7 -10 -5 -14 3 -4 8 -23 11 -42 4
-19 8 -38 9 -44 1 -5 5 -16 9 -22 5 -7 5 -17 2 -23 -3 -5 -1 -10 6 -10 7 0 9
-3 6 -7 -4 -3 -2 -12 3 -18 6 -7 11 -24 12 -39 1 -14 6 -26 10 -26 4 0 7 -3 7
-7 -1 -5 0 -10 1 -13 3 -10 11 -45 12 -57 1 -7 5 -13 10 -13 4 0 7 -3 6 -7 -3
-7 22 -81 42 -128 5 -11 12 -30 15 -43 8 -28 59 -82 78 -82 20 0 38 -44 54
-124 4 -22 35 -48 43 -36 3 4 17 6 32 3 15 -3 26 -9 23 -13 -3 -5 2 -16 11
-24 8 -9 14 -16 12 -17 -18 -5 -158 -2 -158 4 0 4 -9 3 -19 -3 -14 -7 -22 -7
-26 0 -5 8 -11 8 -19 1 -7 -6 -15 -8 -19 -5 -10 10 -57 12 -57 2 0 -5 -5 -6
-12 -2 -18 12 -78 11 -78 0 0 -8 -3 -8 -8 -1 -4 6 -41 11 -82 10 -41 0 -81 4
-88 9 -7 5 -12 4 -12 -2 0 -12 -33 -10 -42 3 -5 7 -8 7 -8 0 0 -11 -131 -12
-149 -1 -6 4 -11 4 -11 -1 0 -12 -94 -10 -102 2 -5 6 -8 6 -8 -2 0 -6 -8 -10
-17 -8 -10 1 -27 -1 -38 -5 -11 -4 -29 -4 -40 0 -11 4 -28 4 -37 -1 -9 -5 -19
-6 -22 -1 -5 8 -85 6 -94 -2 -3 -3 -11 -1 -19 5 -7 6 -13 7 -13 2 0 -5 -10
-10 -22 -10 -53 -3 -66 -8 -81 -35 -19 -33 -10 -42 48 -44 46 -3 137 -11 180
-18 17 -2 59 -5 95 -7 36 -1 71 -6 78 -12 6 -5 12 -6 12 -2 0 4 7 2 15 -5 12
-10 15 -10 15 1 0 9 3 10 8 4 4 -5 16 -10 27 -9 11 0 24 -2 29 -4 5 -3 43 -7
85 -8 98 -5 217 -12 259 -17 18 -2 35 0 38 5 3 5 11 5 17 1 14 -9 52 -11 257
-15 88 -2 158 -7 162 -13 5 -6 8 -6 8 2 0 8 9 9 30 3 18 -5 32 -5 36 1 3 6 12
5 21 -3 19 -15 23 -15 34 4 5 7 9 9 9 3 0 -6 46 -10 118 -10 64 0 125 -3 134
-8 9 -4 20 -3 23 3 4 7 13 7 26 0 14 -8 19 -7 19 2 0 9 3 9 10 -2 5 -8 10 -10
10 -4 0 14 62 13 72 -1 5 -7 8 -7 8 0 0 11 269 13 287 2 6 -4 14 -1 16 5 4 9
8 10 14 3 4 -6 19 -10 33 -10 14 1 30 -1 35 -4 12 -6 38 -9 127 -13 38 -2 68
-7 68 -11 0 -5 5 -5 11 -2 14 9 69 13 69 5 0 -3 9 -6 20 -6 11 0 20 3 20 6 0
3 23 6 51 8 28 1 57 7 65 13 11 9 14 9 14 0 0 -9 5 -9 21 0 15 7 156 12 453
13 237 1 437 6 444 10 7 4 12 2 12 -4 0 -8 6 -8 20 0 15 8 20 8 20 -2 0 -9 3
-9 10 2 7 11 10 11 10 2 0 -10 5 -10 20 -2 12 6 20 7 20 1 0 -11 61 -3 75 10
7 7 0 8 -19 5 -16 -3 -34 -2 -39 1 -11 7 -147 6 -184 -1 -13 -3 -23 -2 -23 2
0 8 -32 10 -257 13 -84 2 -150 6 -147 11 3 5 10 6 15 3 5 -4 9 -2 9 3 0 5 15
8 33 7 47 -4 85 16 145 74 29 28 59 51 65 52 54 5 104 3 115 -4 7 -6 12 -6 12
0 0 5 18 8 40 7 22 -1 40 3 40 9 0 5 13 7 31 3 25 -5 36 -1 50 16 11 11 19 25
19 30 0 4 8 8 18 8 28 1 65 38 65 67 0 15 8 35 18 46 10 11 16 24 13 29 -3 4
1 8 8 8 10 0 10 2 0 9 -12 7 -11 14 3 41 10 20 12 29 4 25 -9 -6 -10 -4 -3 6
16 24 14 89 -3 89 -8 0 -11 5 -8 10 3 6 0 11 -7 12 -7 0 -20 2 -28 3 -8 1 -27
-4 -41 -11 -15 -7 -29 -10 -33 -7 -3 4 -6 1 -6 -5 0 -7 -7 -12 -16 -12 -10 0
-14 6 -10 15 3 8 1 15 -5 15 -6 0 -6 7 1 20 6 11 7 20 2 20 -4 0 -9 14 -10 31
-1 17 -9 46 -16 64 -8 18 -12 36 -8 39 3 3 0 6 -6 6 -7 0 -12 9 -12 20 0 11
-4 20 -10 20 -5 0 -10 6 -10 13 0 22 -57 70 -74 64 -9 -4 -16 -3 -16 1 0 11
-146 2 -166 -11 -24 -15 -21 7 4 30 23 21 27 34 28 81 2 86 3 92 19 92 8 0 15
5 15 12 0 6 3 8 7 5 3 -4 12 -2 19 4 10 8 11 16 3 31 -9 16 -6 24 12 41 13 12
27 21 31 19 5 -1 8 4 8 12 0 7 22 24 49 37 27 13 47 27 45 31 -3 5 3 11 13 15
16 6 134 94 191 143 13 11 28 20 32 20 17 0 22 21 8 37 -11 14 -11 16 2 8 13
-8 13 -7 1 9 -11 13 -15 52 -15 157 -1 121 -4 143 -19 154 -9 7 -17 17 -17 24
0 6 -6 11 -14 11 -8 0 -13 6 -12 13 2 18 46 87 73 117 15 16 22 33 19 50 -2
14 -5 30 -5 36 -1 6 -7 11 -13 11 -27 2 -114 14 -138 20 -59 13 -86 10 -120
-16 -35 -27 -132 -121 -123 -121 2 0 -2 -6 -9 -14 -14 -13 -89 -17 -98 -4 -9
11 -88 -29 -113 -57 -12 -14 -29 -27 -37 -29 -8 -2 -28 -8 -43 -14 -16 -7 -32
-12 -37 -12 -5 0 -14 -8 -19 -17 -6 -10 -11 -15 -11 -10 0 7 -53 -36 -74 -61
-47 -56 -102 -103 -110 -95 -3 3 -8 -2 -12 -11 -3 -9 -11 -16 -18 -16 -6 0
-22 -10 -36 -23 -33 -30 -50 -24 -50 19 0 19 -3 34 -7 34 -5 0 -9 10 -9 23 -3
50 -9 87 -14 87 -3 0 -7 15 -8 33 -2 17 -7 34 -12 35 -6 2 -10 12 -10 23 0 10
-5 19 -11 19 -5 0 -7 5 -4 10 3 6 2 10 -2 10 -5 0 -17 16 -28 36 -10 19 -33
48 -51 64 -18 15 -30 31 -27 34 4 3 1 6 -6 6 -19 0 -68 44 -64 57 3 7 11 9 20
6 11 -5 14 -3 8 6 -6 10 -3 11 14 2 12 -7 26 -9 31 -6 5 3 13 -3 19 -12 5 -10
12 -17 16 -15 10 6 95 -39 95 -49 0 -6 4 -8 9 -4 5 3 13 0 16 -6 4 -5 13 -8
21 -5 7 3 16 1 19 -4 7 -11 124 -5 175 9 67 18 80 23 80 30 0 3 14 12 32 20
33 15 57 32 90 66 40 40 49 58 62 130 1 6 5 16 9 23 5 6 6 12 3 12 -2 0 6 20
19 46 27 53 23 75 -17 109 -21 18 -28 31 -25 50 3 28 38 57 65 54 9 -1 19 0
22 1 6 2 17 5 73 19 41 10 52 2 41 -31 -8 -25 -12 -117 -6 -135 2 -6 10 -9 18
-6 8 3 12 8 9 13 -2 4 5 17 16 28 11 12 17 22 14 22 -3 0 1 10 9 23 8 12 15
24 15 27 0 3 8 23 17 45 10 22 17 43 16 48 -1 4 3 7 10 7 6 0 8 3 5 7 -4 3 -1
16 6 27 8 12 13 29 11 38 -3 26 34 4 48 -28 6 -13 18 -24 25 -24 8 0 12 -4 8
-9 -3 -6 4 -15 15 -21 19 -10 20 -9 17 12 -2 13 -7 30 -11 39 -4 9 -8 28 -10
42 -1 14 -8 33 -16 41 -8 11 -9 16 -1 16 7 0 8 8 1 25 -6 15 -6 26 0 30 6 4
10 19 10 34 0 15 3 31 7 35 4 3 8 16 10 28 2 12 7 25 11 28 4 3 8 19 7 36 0
17 5 31 12 31 7 0 12 -3 11 -6 0 -3 0 -8 2 -11 1 -3 4 -16 6 -30 3 -13 9 -29
14 -34 6 -6 10 -18 10 -28 0 -10 4 -26 9 -36 5 -9 16 -33 24 -52 l15 -35 -3
30 c-1 17 -4 30 -5 30 -6 0 -14 64 -23 190 -1 17 -6 36 -11 44 -7 10 -6 12 4
6 9 -6 11 -4 4 6 -4 8 -9 30 -11 49 -1 19 -5 51 -8 70 -3 19 -7 46 -9 60 -2
14 -5 25 -6 25 -2 0 -5 14 -14 55 -3 14 -10 26 -15 28 -6 2 -7 10 -4 18 3 8
-1 14 -8 14 -7 0 -9 3 -6 6 7 7 -29 63 -48 76 -6 5 -6 8 0 8 6 0 6 3 0 8 -6 4
-28 34 -50 67 -36 54 -85 113 -85 101 0 -3 -22 17 -50 44 -27 27 -50 47 -50
45 0 -2 -15 9 -32 26 -18 16 -41 32 -50 35 -10 3 -18 10 -18 15 0 5 -6 9 -14
9 -8 0 -16 4 -18 9 -8 22 -398 193 -398 174 0 -3 -6 -1 -12 4 -7 5 -28 9 -45
8 -18 0 -33 3 -33 8 0 5 -6 4 -13 -2 -8 -6 -16 -8 -19 -6 -3 3 -43 5 -89 4
-131 -2 -159 -4 -159 -11 0 -3 -8 -5 -17 -4 -10 2 -21 -2 -25 -8 -6 -8 -8 -7
-8 1 0 7 -8 10 -17 7 -10 -3 -6 2 10 11 15 8 27 21 27 27 0 6 3 8 6 5 4 -4 19
2 34 13 16 11 34 20 42 20 8 0 19 5 25 11 6 6 17 12 24 13 8 2 25 6 39 9 42
11 84 19 108 20 12 1 22 3 22 7 0 3 17 5 38 4 20 0 47 3 59 7 13 5 25 4 28 -1
4 -7 13 -7 24 0 10 5 20 7 22 5 11 -11 57 -12 55 -2 -3 24 -17 36 -36 32 -11
-2 -20 0 -20 6 0 5 -9 9 -20 9 -11 0 -20 4 -20 8 0 7 -16 11 -57 14 -7 1 -13
4 -13 8 0 3 -10 6 -22 7 -13 0 -42 3 -65 5 -24 2 -46 1 -51 -4z m-555 -1888
c-22 -27 -47 -35 -47 -17 0 6 -3 7 -6 4 -4 -3 -16 -1 -28 5 -11 7 -24 12 -28
13 -5 0 -9 4 -10 10 -2 5 13 10 32 11 19 1 35 3 35 4 0 1 10 3 22 4 13 2 26 6
30 9 4 4 10 2 14 -5 4 -6 -2 -23 -14 -38z m1019 -930 c9 0 12 -4 9 -10 -3 -5
3 -10 13 -10 41 0 31 -44 -15 -69 -19 -9 -29 -9 -54 4 -17 9 -40 18 -51 20
-32 7 -32 12 -1 32 15 10 34 24 42 31 7 7 20 11 28 8 8 -3 21 -6 29 -6z m-175
-118 c-6 -2 -11 -17 -11 -33 0 -34 -13 -37 -34 -8 -16 24 -11 49 10 49 8 0 19
9 26 20 13 21 13 21 16 -2 2 -12 -1 -24 -7 -26z m-2617 -1191 c4 -5 -8 -7 -26
-4 -44 7 -49 13 -10 13 17 0 33 -4 36 -9z m2720 -79 c3 -5 -1 -9 -9 -9 -8 0
-12 4 -9 9 3 4 7 8 9 8 2 0 6 -4 9 -8z"/>
<path d="M3086 4512 c-9 -15 9 -28 97 -72 48 -25 87 -48 87 -53 0 -4 5 -5 10
-2 6 3 10 1 10 -5 0 -6 5 -8 11 -5 11 7 -81 75 -101 75 -5 0 -10 5 -10 10 0 6
-5 10 -10 10 -6 0 -28 11 -50 25 -21 13 -41 21 -44 17z"/>
</g>
</svg>
